<svg id="visual" viewBox="0 0 960 300" width="960" height="300" xmlns="http://www.w3.org/2000/svg" xmlns:xlink="http://www.w3.org/1999/xlink" version="1.1"><rect x="0" y="0" width="960" height="300" fill="#ffffff"></rect><path d="M0 49L14.5 52.8C29 56.7 58 64.3 87.2 66.8C116.3 69.3 145.7 66.7 174.8 62.3C204 58 233 52 262 52C291 52 320 58 349 57.7C378 57.3 407 50.7 436.2 47.3C465.3 44 494.7 44 523.8 44.8C553 45.7 582 47.3 611 47.7C640 48 669 47 698 49.3C727 51.7 756 57.3 785.2 57.2C814.3 57 843.7 51 872.8 47.8C902 44.7 931 44.3 945.5 44.2L960 44L960 0L945.5 0C931 0 902 0 872.8 0C843.7 0 814.3 0 785.2 0C756 0 727 0 698 0C669 0 640 0 611 0C582 0 553 0 523.8 0C494.7 0 465.3 0 436.2 0C407 0 378 0 349 0C320 0 291 0 262 0C233 0 204 0 174.8 0C145.7 0 116.3 0 87.2 0C58 0 29 0 14.5 0L0 0Z" fill="#dcfdbc"></path><path d="M0 41L14.5 43.3C29 45.7 58 50.3 87.2 51.5C116.3 52.7 145.7 50.3 174.8 47C204 43.7 233 39.3 262 36.5C291 33.7 320 32.3 349 32.7C378 33 407 35 436.2 35.3C465.3 35.7 494.7 34.3 523.8 34C553 33.7 582 34.3 611 34.8C640 35.3 669 35.7 698 37.8C727 40 756 44 785.2 45.7C814.3 47.3 843.7 46.7 872.8 47.7C902 48.7 931 51.3 945.5 52.7L960 54L960 0L945.5 0C931 0 902 0 872.8 0C843.7 0 814.3 0 785.2 0C756 0 727 0 698 0C669 0 640 0 611 0C582 0 553 0 523.8 0C494.7 0 465.3 0 436.2 0C407 0 378 0 349 0C320 0 291 0 262 0C233 0 204 0 174.8 0C145.7 0 116.3 0 87.2 0C58 0 29 0 14.5 0L0 0Z" fill="#c7fcc1"></path><path d="M0 37L14.5 34.5C29 32 58 27 87.2 24.5C116.3 22 145.7 22 174.8 24.7C204 27.3 233 32.7 262 32.2C291 31.7 320 25.3 349 24.2C378 23 407 27 436.2 30.5C465.3 34 494.7 37 523.8 36.3C553 35.7 582 31.3 611 30.2C640 29 669 31 698 31C727 31 756 29 785.2 27.3C814.3 25.7 843.7 24.3 872.8 24C902 23.7 931 24.3 945.5 24.7L960 25L960 0L945.5 0C931 0 902 0 872.8 0C843.7 0 814.3 0 785.2 0C756 0 727 0 698 0C669 0 640 0 611 0C582 0 553 0 523.8 0C494.7 0 465.3 0 436.2 0C407 0 378 0 349 0C320 0 291 0 262 0C233 0 204 0 174.8 0C145.7 0 116.3 0 87.2 0C58 0 29 0 14.5 0L0 0Z" fill="#b1fbc8"></path><path d="M0 14L14.5 15.8C29 17.7 58 21.3 87.2 21.8C116.3 22.3 145.7 19.7 174.8 17C204 14.3 233 11.7 262 12.8C291 14 320 19 349 21.8C378 24.7 407 25.3 436.2 24.3C465.3 23.3 494.7 20.7 523.8 18.5C553 16.3 582 14.7 611 13.5C640 12.3 669 11.7 698 12.5C727 13.3 756 15.7 785.2 15.2C814.3 14.7 843.7 11.3 872.8 9.8C902 8.3 931 8.7 945.5 8.8L960 9L960 0L945.5 0C931 0 902 0 872.8 0C843.7 0 814.3 0 785.2 0C756 0 727 0 698 0C669 0 640 0 611 0C582 0 553 0 523.8 0C494.7 0 465.3 0 436.2 0C407 0 378 0 349 0C320 0 291 0 262 0C233 0 204 0 174.8 0C145.7 0 116.3 0 87.2 0C58 0 29 0 14.5 0L0 0Z" fill="#99fad1"></path></svg>